<svg width="435" height="473" viewBox="0 0 435 473" fill="none" xmlns="http://www.w3.org/2000/svg">
<path d="M14 422V0C83.0729 0 227.225 2.57631 251.25 12.8816C281.282 25.7631 256.756 55.6484 251.25 89.6557C245.745 123.663 256.756 129.331 302.304 123.663C347.852 117.995 354.86 125.209 389.396 153.548C423.933 181.888 429.439 166.43 429.439 186.525C429.439 206.62 441.952 223.109 429.439 245.78C416.925 268.452 393.401 312.764 370.376 324.1C347.352 335.436 316.319 383.871 288.79 395.206C261.261 406.542 252.752 393.661 240.239 395.206C230.228 396.443 205.702 413.584 194.691 422H14Z" fill="#D44DEB" fill-opacity="0.17"/>
<path d="M0 420V10.5C69 10.5 213 13 237 23C267 35.5 242.5 64.5 237 97.5C231.5 130.5 242.5 136 288 130.5C333.5 125 340.5 132 375 159.5C409.5 187 415 172 415 191.5C415 211 427.5 227 415 249C402.5 271 379 314 356 325C333 336 302 383 274.5 394C247 405 238.5 392.5 226 394C216 395.2 191.5 411.833 180.5 420H0Z" fill="#A82ABD"/>
<path d="M229.365 396.076C228.735 396.464 227.788 396.676 227.04 396.747C224.201 397.03 221.363 397.242 218.525 397.383C212.691 397.737 206.818 397.878 200.944 397.949C189.198 398.09 177.451 397.949 165.704 398.267C163.773 398.302 161.881 398.55 159.949 398.479C135.352 397.419 121.122 397.242 102.635 396.394C79.1807 395.298 54.229 390.102 106.261 387.133C117.377 386.497 129.124 386.603 140.28 386.037C150.134 385.542 160.028 385.401 169.962 385.507C178.594 385.578 187.187 385.825 195.82 386.073C204.808 386.32 215.214 384.482 223.61 389.678C224.359 390.137 225.069 390.667 225.818 391.056C226.842 391.586 227.986 391.94 228.892 392.788C230.706 394.45 230.351 395.475 229.365 396.076Z" fill="url(#paint0_linear_61_3)"/>
<path opacity="0.56" d="M229.365 396.076C228.735 396.464 227.788 396.676 227.04 396.747C224.201 397.03 221.363 397.242 218.525 397.383C212.691 397.737 206.818 397.878 200.944 397.949C189.198 398.09 177.451 397.949 165.704 398.267C163.773 398.302 161.881 398.55 159.949 398.479C135.352 397.419 121.122 397.242 102.635 396.394C79.1807 395.298 54.229 390.102 106.261 387.133C117.377 386.497 129.124 386.603 140.28 386.037C150.134 385.542 160.028 385.401 169.962 385.507C178.594 385.578 187.187 385.825 195.82 386.073C204.808 386.32 215.214 384.482 223.61 389.678C224.359 390.137 225.069 390.667 225.818 391.056C226.842 391.586 227.986 391.94 228.892 392.788C230.706 394.45 230.351 395.475 229.365 396.076Z" fill="url(#paint1_linear_61_3)"/>
<path d="M172.997 21.0147C177.806 24.302 180.684 29.3212 183.364 34.1636C186.675 40.2078 189.907 46.4642 190.38 53.18C190.735 58.1285 189.631 63.4304 192.154 67.8487C182.694 71.1006 173.43 74.6706 164.325 78.6294C151.356 66.0461 142.329 50.2109 138.584 33.4213C138.466 32.8558 138.348 32.2549 138.584 31.7247C138.821 31.1238 139.452 30.735 140.043 30.3815C148.163 25.5744 157.545 22.8174 166.769 20.1311C167.754 19.8483 168.74 19.5655 169.765 19.6362C170.987 19.7776 172.051 20.3785 172.997 21.0147Z" fill="#E8DBCE"/>
<path d="M164.207 148.58C164.364 146.212 164.246 144.904 161.96 143.349C160.856 142.606 159.476 142.218 158.176 141.793C155.337 140.804 153.721 139.425 151.356 137.87C149.701 136.774 148.124 135.997 146.311 135.714C146.074 135.502 145.877 135.29 145.641 135.078C144.576 134.088 142.763 134.123 141.699 135.078C139.61 136.88 136.614 139.814 138.111 142.642C138.782 143.879 140.437 144.869 141.856 145.717C142.014 145.964 142.25 146.247 142.566 146.459C148.242 150.489 150.923 156.78 156.441 160.951C156.796 161.234 157.19 161.375 157.584 161.481C157.505 161.941 157.624 162.471 157.979 163.001C158.294 163.496 158.649 164.026 158.964 164.521C160.225 166.501 164.561 165.829 164.167 163.249C163.418 158.23 163.891 153.634 164.207 148.58Z" fill="#65627D"/>
<path d="M205.281 384.341C209.893 337.118 214.386 265.435 218.998 218.212C205.596 216.94 191.248 234.012 177.766 234.295C173.588 234.366 167.991 223.656 167.163 228.074C166.611 231.114 171.814 245.783 172.327 248.999C175.914 270.843 180.092 292.864 181.472 314.991C181.866 321.424 181.669 327.857 181.827 334.255C182.063 345.177 183.324 356.028 184.901 366.844C185.532 371.086 188.646 378.968 187.463 383.033C186.478 386.461 180.565 388.335 176.742 389.713C175.48 390.173 174.14 390.632 173.194 391.516C172.248 392.4 171.854 393.919 172.76 394.874C173.509 395.687 174.889 395.793 176.071 395.793C185.256 395.864 194.48 395.192 203.546 393.707C204.098 393.637 204.65 393.495 205.044 393.177C205.36 392.894 205.517 392.506 205.635 392.117C206.424 389.537 206.108 386.744 204.886 384.341C205.005 384.341 205.162 384.341 205.281 384.341Z" fill="#444748"/>
<path d="M176.86 84.9918C178.003 84.6383 179.146 84.2495 180.289 83.8607C185.965 81.9166 191.642 79.9726 197.318 77.9932C198.146 77.7104 199.052 77.3923 199.959 77.569C200.629 77.7104 201.22 78.0992 201.772 78.488C212.376 86.1582 220.378 126.1 222.546 142.96C227.789 183.785 231.691 191.384 227.749 232.245C202.442 236.133 190.302 211.815 164.64 212.946C166.059 212.875 161.171 207.326 161.486 204.569C163.418 188.38 158.846 176.504 158.688 160.244C158.53 143.914 161.999 132.002 163.339 115.708C163.891 109.098 165.823 106.27 166.493 99.6959C166.769 97.1156 171.183 86.2996 173.312 85.9108C174.455 85.6987 175.677 85.3806 176.86 84.9918Z" fill="#DBDBDB"/>
<path d="M160.974 102.311C160.895 103.761 163.182 105.563 164.088 106.659C164.561 107.224 165.547 107.366 165.98 106.659C167.715 103.796 169.173 100.791 170.159 97.6457C170.159 97.6103 170.159 97.5396 170.159 97.5042C171.065 97.4335 171.341 96.1257 170.316 95.9137C168.227 95.4188 166.099 95.1714 163.931 95.1007C163.537 95.1007 163.063 95.3835 162.984 95.7369C162.787 97.0094 162.512 98.2465 162.078 99.4483C161.841 100.261 161.014 101.463 160.974 102.311Z" fill="#1A1A1A"/>
<path d="M157.584 145.363C157.624 159.856 158.294 174.312 161.644 188.168C162.039 189.829 163.97 189.582 163.931 187.744C163.694 174.206 163.576 160.633 163.536 147.095C163.773 146.742 163.931 146.247 163.812 145.646C163.733 145.222 163.655 144.763 163.576 144.338C163.576 136.739 163.655 129.175 163.733 121.575C164.206 116.698 164.64 111.749 164.246 106.73C164.128 105.069 162.275 103.867 161.644 105.775C157.427 118.253 157.505 131.897 157.584 145.363Z" fill="#1A1A1A"/>
<path d="M238.314 224.575C231.967 197.004 232.44 168.833 229.365 140.91C226.527 114.895 218.841 98.2113 206.581 74.4938C204.059 69.5807 199.92 66.046 195.741 68.3789C187.621 69.5453 188.804 69.3686 186.399 70.6057C184.546 71.0652 182.694 72.1256 180.999 73.3274C179.619 74.1757 178.397 75.0947 177.333 76.0491C176.821 76.4379 176.348 76.7913 175.874 77.0741C171.302 80.1139 166.611 83.2244 162.63 86.8651C161.92 87.5367 162.472 88.491 163.418 88.5617C165.981 88.7738 168.109 89.9049 170.395 90.8239C170.316 91.248 170.277 91.6722 170.238 92.1317C170.041 92.3084 169.804 92.5205 169.607 92.7325C173.036 94.7826 175.638 97.7871 176.269 101.498C178.752 115.425 175.993 127.832 174.771 141.652C173.509 155.826 172.957 170.071 171.341 184.244C171.184 185.588 170.908 186.86 170.474 188.133C170.553 188.133 170.592 188.133 170.671 188.168C167.912 204.321 165.98 220.616 161.841 236.557C161.802 236.699 161.763 236.84 161.723 236.981C163.891 242.107 170.001 245.57 176.072 245.818C195.071 246.631 212.1 242.955 230.035 237.724C236.421 235.815 239.654 230.442 238.314 224.575Z" fill="#65627D"/>
<path d="M142.921 269.641C142.999 268.263 143.473 267.132 144.221 266.248C144.931 263.668 147.138 261.582 150.607 261.653C160.895 261.795 171.184 261.971 181.472 262.113C181.984 254.478 185.571 244.333 194.48 245.005C204.059 245.712 211.627 254.301 211.588 262.572C219.235 262.678 226.921 262.82 234.569 262.926C236.106 262.961 237.328 263.42 238.274 264.092C240.363 264.905 242.098 266.531 242.452 269.041C242.728 270.985 242.925 272.929 243.162 274.873C243.438 275.686 243.556 276.534 243.477 277.418C244.739 288.693 245.448 299.969 246.946 311.209C247.104 312.446 246.906 313.506 246.473 314.39C246.276 315.486 246.118 316.581 245.921 317.712C245.921 320.116 244.029 322.272 241.467 322.944C240.836 323.121 240.205 323.227 239.575 323.333C238.983 323.792 238.313 324.181 237.446 324.464C223.886 329.094 206.384 324.747 192.115 324.216C176.623 323.686 161.999 323.156 146.547 321.141C143.394 320.717 140.792 317.253 140.91 314.496L142.921 269.641ZM204.137 257.447C203.586 256.669 202.955 255.892 202.285 255.149C198.658 253.806 194.244 253.771 191.524 255.432C190.972 255.786 190.459 256.139 189.986 256.563V256.599C189.868 256.952 189.592 257.164 189.277 257.306C187.937 258.719 186.99 260.416 186.241 262.219C193.14 262.325 200.077 262.431 206.976 262.537C206.148 260.769 205.241 259.037 204.137 257.447Z" fill="#1A1A1A"/>
<path d="M201.969 227.014C200.038 226.978 198.028 226.519 196.096 225.812C196.096 228.18 196.057 230.584 196.017 232.952C195.978 233.235 195.978 233.517 195.939 233.836C195.663 236.981 194.835 240.127 193.573 242.99C193.258 243.662 192.943 244.439 193.179 245.111C193.573 246.171 194.953 245.818 195.899 245.288C194.677 248.646 194.874 252.604 196.412 255.609C197.003 255.962 197.673 256.174 198.343 255.962C199.013 255.715 199.131 254.584 199.999 254.372C211.627 251.438 205.99 239.809 205.044 232.174C205.084 232.174 205.123 232.139 205.162 232.139C205.359 230.372 205.557 228.569 205.714 226.802C204.492 226.978 203.27 227.049 201.969 227.014Z" fill="#E8DBCE"/>
<path d="M140.91 134.406C140.713 134.123 140.437 133.84 140.043 133.664C139.767 133.522 139.452 133.381 139.176 133.24C138.782 132.639 138.506 130.836 138.309 130.412C137.796 129.422 137.165 128.68 136.219 128.044C134.485 126.877 132.711 126.312 131.135 124.968C128.099 122.388 122.186 123.979 119.191 125.887C114.539 128.821 118.994 132.639 122.029 134.653C126.247 137.446 131.095 138.966 136.219 139.496C137.284 137.552 138.86 135.891 140.91 134.406Z" fill="#E8DBCE"/>
<path d="M129.676 115.319C129.321 114.93 129.006 114.541 128.651 114.153C128.533 114.047 128.454 113.905 128.336 113.799C124.788 110.017 120.373 107.154 115.485 107.154C110.321 107.154 103.936 108.957 102.004 113.516C105.828 118.96 111.031 123.131 116.668 127.054C118.954 128.645 121.713 130.695 124.67 131.119C124.946 131.225 125.182 131.366 125.458 131.472C126.759 130.907 128.06 130.271 129.361 129.634C131.332 128.609 134.485 127.408 135.825 125.534C134.525 122.353 132.396 118.606 129.676 115.319Z" fill="#666666"/>
<path d="M120.649 125.958C121.753 126.877 122.699 127.867 123.724 128.821C127.469 128.008 131.292 126.842 132.751 123.944C130.425 119.985 125.576 114.718 125.024 114.117C124.078 113.092 123.132 112.032 122.147 111.007C119.506 108.285 116.037 108.78 112.332 109.239C110.203 109.522 103.423 111.219 107.483 114.153C107.956 114.471 108.429 114.824 108.863 115.142C112.765 118.783 116.589 122.53 120.649 125.958Z" fill="#F0F0F0"/>
<path d="M118.993 118.359C117.811 118.359 117.811 120.02 118.993 120.02C120.215 120.055 120.215 118.359 118.993 118.359Z" fill="#CACACA"/>
<path d="M123.211 116.698H122.738C121.556 116.698 121.556 118.359 122.738 118.359H123.211C124.394 118.359 124.394 116.698 123.211 116.698Z" fill="#CACACA"/>
<path d="M125.931 119.242C123.763 120.267 121.556 121.116 119.23 121.752C118.087 122.07 118.56 123.661 119.742 123.378C122.226 122.706 124.591 121.787 126.877 120.692C127.941 120.197 126.995 118.747 125.931 119.242Z" fill="#CACACA"/>
<path d="M125.301 122.636C124.197 123.06 123.133 123.449 122.029 123.873C120.925 124.297 121.438 125.887 122.541 125.499C123.645 125.074 124.709 124.686 125.813 124.262C126.877 123.837 126.404 122.247 125.301 122.636Z" fill="#CACACA"/>
<path d="M179.501 46.1107C179.422 47.3479 178.279 47.984 177.175 47.9487C177.136 47.984 177.096 48.0548 177.057 48.0901C176.545 47.772 176.071 47.5246 175.559 47.3478C175.598 47.3125 175.638 47.2418 175.638 47.2065C175.52 47.0297 175.401 46.853 175.323 46.6056C174.416 43.8132 173.628 41.0208 173.509 38.1224C173.47 37.4508 173.47 36.8146 173.431 36.2137C173.233 36.2491 172.997 36.2491 172.76 36.2137C171.302 36.0016 170.001 35.4361 168.858 34.6585C161.132 35.8956 153.445 36.3551 145.641 35.5421C144.931 35.6482 144.182 35.7189 143.433 35.7896C143.078 36.037 142.763 36.3197 142.369 36.5318C140.91 37.5569 138.624 36.9914 137.836 35.7896C136.101 35.5775 134.525 35.0826 133.381 34.1283C131.726 32.7851 130.267 30.1695 131.686 28.2608C132.041 27.8013 132.435 27.4832 132.83 27.2711C135.746 21.3329 142.724 17.6215 149.306 15.2179C152.736 13.9455 157.584 12.4609 162.236 12.1074C162.866 12.0014 163.536 11.9661 164.285 12.0368C166.769 12.0368 169.134 12.4256 171.144 13.4506C171.775 13.2739 172.445 13.1325 173.194 13.1325C176.308 13.0972 178.673 14.9352 179.186 17.5508C179.895 18.1871 180.447 18.9293 180.802 19.707C181.393 20.2372 181.945 20.8027 182.497 21.3682C182.812 21.4743 183.127 21.5803 183.403 21.6863C184.113 21.5803 184.823 21.6156 185.532 21.7924C187.897 21.8631 189.71 23.7364 190.459 25.9279C190.932 26.8116 191.208 27.6952 191.05 28.4375C190.972 28.791 190.854 29.0738 190.696 29.3212C190.656 29.4272 190.617 29.5332 190.577 29.6393C192.943 34.2697 193.258 39.8191 192.667 44.7322C192.588 45.4038 192.233 45.8986 191.799 46.2874C191.799 46.4288 191.76 46.5702 191.76 46.7116C191.445 48.8324 187.385 48.3375 187.542 46.2168C187.542 46.0047 187.582 45.7926 187.582 45.5452C187.503 45.2977 187.503 45.0503 187.503 44.7675C187.503 44.7322 187.503 44.6615 187.503 44.6262C187.227 41.1976 185.453 36.3198 181.59 39.0414C178.949 40.8441 179.698 43.0002 179.501 46.1107Z" fill="#F0F0F0"/>
<path d="M3.85224 465.372H68.8358L68.8358 370.591H3.85224L3.85224 465.372Z" fill="#B2B2B2"/>
<path d="M68.5785 465.372H133.562V370.591H68.5785L68.5785 465.372Z" fill="#D1D1D1"/>
<path d="M74.4161 280.965L82.2427 313.682L57.7978 316.43C57.7978 316.43 55.6785 282.43 57.7978 282.247C59.917 282.082 74.4161 280.965 74.4161 280.965Z" fill="#A8754B"/>
<path d="M51.545 248.101C51.545 248.101 75.9688 251.106 80.3542 283.548C80.3542 283.548 72.5697 290.857 62.6448 288.604L51.545 248.101Z" fill="#FFD686"/>
<path d="M40.9487 246.984C40.9487 246.984 17.1542 244.932 8.78212 259.569C0.389025 274.205 24.8549 289.447 16.4618 322.988L69.2124 320.552V290.967C69.2124 290.967 78.8225 278.73 65.2047 265.614C65.2047 265.614 64.3864 245.683 40.9487 246.984Z" fill="#FFD686"/>
<path d="M119.424 327.732C119.424 327.732 136.525 322.2 141.12 336.69C145.715 351.162 164.768 445.778 164.768 445.778H149.492L140.512 408.17C140.512 408.17 127.838 395.841 123.956 369.664L70.6602 364.113L119.424 327.732Z" fill="#B5845B"/>
<path d="M84.4669 362.355C84.4669 362.355 93.5314 362.135 109.625 357.665C125.719 353.177 137.196 357.922 130.86 373.749C124.523 389.558 92.5032 462.833 92.5032 462.833L80.3752 459.663L90.8456 412.218C90.8456 412.218 93.3006 388.679 104.673 374.885C104.673 374.885 80.7529 375.929 72.5696 374.83C64.4283 373.749 84.4669 362.355 84.4669 362.355Z" fill="#A8754B"/>
<path d="M16.4618 322.988C16.4618 322.988 -2.88426 344.219 20.3856 365.066C20.3856 365.066 32.3667 377.248 85.1803 375.343C85.1803 375.343 99.0289 334.529 128.489 323.556L67.5128 316.43L16.4618 322.988Z" fill="#0C2C40"/>
<path d="M42.2496 192.779C42.2496 192.779 48.5444 170.412 26.7434 170.284C10.6076 170.192 5.80259 187.027 25.5893 198.293L42.2496 192.779Z" fill="#190D08"/>
<path d="M24.8549 202.36C24.8549 202.36 20.9101 193.567 32.1569 189.115C43.4036 184.664 46.9917 195.197 46.9917 195.197L24.8549 202.36Z" fill="#FD6C75"/>
<path d="M67.5758 222.364C67.5758 222.364 83.8164 213.974 66.2539 197.121C55.2799 186.587 36.0597 187.174 25.3585 197.615C14.6573 208.057 24.75 226.467 24.75 226.467L32.031 215.897L38.4098 207.69L47.5373 204.503L54.6924 204.943L60.7564 205.62L65.6454 207.416L67.5758 222.364Z" fill="#27160C"/>
<path d="M54.3105 229.143L36.0577 227.096L32.3634 252.207L50.6162 254.254L54.3105 229.143Z" fill="#B5845B"/>
<path d="M34.1503 234.564C34.1503 234.564 36.1227 243.705 44.5367 245.555C47.1596 246.123 50.0132 245.463 51.6079 243.577C52.0486 243.064 52.3633 242.477 52.4682 241.818C52.8669 239.18 44.8935 234.564 44.8935 234.564H34.1503Z" fill="#A8754B"/>
<path d="M47.0127 241.067L46.0684 240.957C35.5981 239.784 28.1912 231.413 29.534 222.272L30.6042 215.018C31.9471 205.877 41.5362 199.41 52.0066 200.583L52.9508 200.692C63.4212 201.865 70.8281 210.236 69.4852 219.377L68.4151 226.632C67.0722 235.773 57.483 242.239 47.0127 241.067Z" fill="#B5845B"/>
<path d="M31.5904 220.458C31.5904 220.458 44.7256 216.721 44.3899 203.843C44.3899 203.843 45.2292 194.244 33.7306 203.129C22.2321 212.014 31.5904 220.458 31.5904 220.458Z" fill="#27160C"/>
<path d="M34.486 223.976C34.0244 227.053 30.814 229.233 27.268 228.83C23.7429 228.427 21.2459 225.624 21.7075 222.547C22.1692 219.469 25.3795 217.289 28.9256 217.692C32.4507 218.077 34.9476 220.898 34.486 223.976Z" fill="#B5845B"/>
<path d="M38.7035 214.01L38.116 218.077C36.7731 223.811 34.0034 222.071 32.9962 219.598L38.7035 214.01Z" fill="#27160C"/>
<path d="M71.4996 211.94C71.4996 211.94 58.0916 220.715 38.4308 207.709C24.8759 198.751 45.376 195.527 45.376 195.527L64.4913 198.971L71.4996 211.94Z" fill="#27160C"/>
<path d="M32.3877 252.186C32.3877 252.186 43.8653 270.065 52.0066 264.57C60.7983 258.635 40.9487 246.984 40.9487 246.984L32.3877 252.186Z" fill="#B5845B"/>
<path d="M37.4655 288.604C37.4655 288.604 44.5577 300.016 49.4047 308.974L101.106 306.373C101.106 306.373 111.367 299.045 119.403 305.237L111.472 313.554L46.7399 326.065C44.2639 326.542 41.6831 325.919 39.8576 324.417C34.1293 319.691 21.6655 308.681 15.6225 297.452L37.4655 288.604Z" fill="#B5845B"/>
<path d="M180.966 271H117.431C115.332 271 113.528 272.282 113.108 274.059L101.148 323.061C100.561 325.461 102.659 327.733 105.471 327.733H170.076C172.196 327.733 174.021 326.414 174.42 324.6L185.331 275.598C185.834 273.216 183.736 271 180.966 271Z" fill="#B2B2B2"/>
<path d="M184.617 271H121.082C118.983 271 117.179 272.282 116.759 274.059L104.799 323.061C104.212 325.461 106.31 327.733 109.122 327.733H173.727C175.847 327.733 177.672 326.414 178.071 324.6L188.982 275.598C189.485 273.216 187.408 271 184.617 271Z" fill="#D1D1D1"/>
<path d="M102.827 323.556H59.4135C58.0916 323.556 57.0214 324.49 57.0214 325.644C57.0214 326.798 58.0916 327.733 59.4135 327.733H103.666L102.827 323.556Z" fill="#B2B2B2"/>
<path d="M145.275 298.093C145.275 301.427 148.38 304.138 152.199 304.138C156.018 304.138 159.123 301.427 159.123 298.093C159.123 294.759 156.018 292.048 152.199 292.048C148.38 292.048 145.275 294.741 145.275 298.093Z" fill="white"/>
<path d="M15.6225 252.443C14.7622 252.773 -13.7114 264.991 14.3006 302.856C14.3006 302.856 32.1989 303.112 42.5643 291.48C42.5853 291.48 39.1441 243.43 15.6225 252.443Z" fill="#FFD686"/>
<path d="M77.0809 457.593C77.4586 456.604 78.6966 456.238 79.5359 456.879C81.1726 458.143 84.1101 459.7 88.4326 459.315C92.9439 458.931 94.6225 456.604 95.273 454.937C95.6087 454.058 96.5739 453.618 97.4342 453.985L124.754 465.965C126.411 466.698 127.712 468.053 128.342 469.739C128.95 471.332 127.733 473.036 126.013 472.999L78.8225 471.864C76.955 471.827 75.5492 470.233 75.6961 468.383L76.4724 459.297C76.4934 459.15 76.5144 459.004 76.5773 458.857L77.0809 457.593Z" fill="#FD6C75"/>
<path d="M145.967 441.913C146.051 440.869 147.121 440.227 148.107 440.667C150.059 441.51 153.353 442.334 157.424 440.978C161.641 439.568 162.586 436.948 162.711 435.19C162.774 434.274 163.572 433.614 164.516 433.779L194.479 439.11C196.305 439.44 197.962 440.447 199.096 441.931C200.166 443.323 199.494 445.247 197.837 445.595L151.947 455.285C150.143 455.67 148.296 454.461 147.898 452.629L145.925 443.69C145.883 443.543 145.883 443.397 145.883 443.232L145.967 441.913Z" fill="#FD6C75"/>
<ellipse cx="360.5" cy="206.5" rx="28.5" ry="26.5" fill="#BD65CC"/>
<ellipse cx="124.5" cy="215.5" rx="28.5" ry="26.5" fill="#BD65CC"/>
<path d="M261 276L287.5 326.5H328.5L343.5 276L309.5 252V276L287.5 252L261 276Z" fill="#B65BC6"/>
<defs>
<linearGradient id="paint0_linear_61_3" x1="229.286" y1="386.448" x2="76.8068" y2="402.797" gradientUnits="userSpaceOnUse">
<stop stop-color="#4D4D4D"/>
<stop offset="1"/>
</linearGradient>
<linearGradient id="paint1_linear_61_3" x1="229.286" y1="386.448" x2="76.8068" y2="402.797" gradientUnits="userSpaceOnUse">
<stop/>
<stop offset="1"/>
</linearGradient>
</defs>
</svg>
